<?xml version="1.0" encoding="UTF-8" standalone="no"?>
<!DOCTYPE svg PUBLIC "-//W3C//DTD SVG 1.1//EN" "http://www.w3.org/Graphics/SVG/1.1/DTD/svg11.dtd">
<svg xmlns="http://www.w3.org/2000/svg" version="1.1" viewBox="0.00 0.00 634.00 435.00">
<path fill="#00adb5" d="
  M 344.2719 90.2182
  A 0.57 0.57 0.0 0 1 344.2719 91.0243
  L 309.2843 126.0119
  A 0.57 0.57 0.0 0 1 308.4782 126.0119
  L 273.4481 90.9818
  A 0.57 0.57 0.0 0 1 273.4481 90.1757
  L 308.4357 55.1881
  A 0.57 0.57 0.0 0 1 309.2418 55.1881
  L 344.2719 90.2182
  Z
  M 309.5707 67.6810
  A 1.14 1.14 0.0 0 0 307.9585 67.6810
  L 285.9110 89.7285
  A 1.14 1.14 0.0 0 0 285.9110 91.3407
  L 308.0293 113.4590
  A 1.14 1.14 0.0 0 0 309.6415 113.4590
  L 331.6890 91.4115
  A 1.14 1.14 0.0 0 0 331.6890 89.7993
  L 309.5707 67.6810
  Z"
/>
<rect fill="#00adb5" x="-8.38" y="-8.50" transform="translate(308.83,90.66) rotate(44.8)" width="16.76" height="17.00" rx="0.27"/>
<path fill="#00adb5" d="
  M 250.1739 197.1248
  A 1.20 1.20 0.0 0 1 248.4768 197.1248
  L 202.3452 150.9932
  A 1.20 1.20 0.0 0 1 202.3452 149.2961
  L 248.4061 103.2352
  A 1.20 1.20 0.0 0 1 250.1032 103.2352
  L 296.2348 149.3668
  A 1.20 1.20 0.0 0 1 296.2348 151.0639
  L 250.1739 197.1248
  Z
  M 250.0588 115.1806
  A 0.98 0.98 0.0 0 0 248.6729 115.1806
  L 214.4206 149.4329
  A 0.98 0.98 0.0 0 0 214.4206 150.8188
  L 248.7012 185.0994
  A 0.98 0.98 0.0 0 0 250.0871 185.0994
  L 284.3394 150.8471
  A 0.98 0.98 0.0 0 0 284.3394 149.4612
  L 250.0588 115.1806
  Z"
/>
<path fill="#00adb5" d="
  M 249.5781 173.8248
  A 0.27 0.27 0.0 0 1 249.1963 173.8255
  L 225.6652 150.3764
  A 0.27 0.27 0.0 0 1 225.6646 149.9946
  L 249.1419 126.4352
  A 0.27 0.27 0.0 0 1 249.5237 126.4345
  L 273.0548 149.8836
  A 0.27 0.27 0.0 0 1 273.0554 150.2654
  L 249.5781 173.8248
  Z
  M 260.74 150.01
  C 257.78 145.68 252.73 141.64 249.37 138.79
  A 0.52 0.52 0.0 0 0 248.66 138.82
  L 237.79 149.98
  A 0.47 0.47 0.0 0 0 237.79 150.65
  L 248.56 161.44
  A 0.82 0.81 -44.2 0 0 249.70 161.45
  L 260.65 150.88
  Q 261.06 150.48 260.74 150.01
  Z"
/>
<path fill="#00adb5" d="
  M 368.7884 173.7458
  A 0.43 0.43 0.0 0 1 368.1803 173.7479
  L 344.7644 150.4950
  A 0.43 0.43 0.0 0 1 344.7623 149.8868
  L 368.0716 126.4142
  A 0.43 0.43 0.0 0 1 368.6797 126.4121
  L 392.0956 149.6650
  A 0.43 0.43 0.0 0 1 392.0977 150.2732
  L 368.7884 173.7458
  Z
  M 379.7581 150.5765
  A 0.53 0.53 0.0 0 0 379.7581 149.8269
  L 368.7131 138.7819
  A 0.53 0.53 0.0 0 0 367.9635 138.7819
  L 356.8619 149.8835
  A 0.53 0.53 0.0 0 0 356.8619 150.6331
  L 367.9069 161.6781
  A 0.53 0.53 0.0 0 0 368.6565 161.6781
  L 379.7581 150.5765
  Z"
/>
<path fill="#00adb5" d="
  M 309.5834 268.7349
  A 0.97 0.97 0.0 0 1 308.2116 268.7373
  L 249.9152 210.6441
  A 0.97 0.97 0.0 0 1 249.9128 209.2723
  L 308.0766 150.9051
  A 0.97 0.97 0.0 0 1 309.4484 150.9027
  L 367.7448 208.9959
  A 0.97 0.97 0.0 0 1 367.7472 210.3677
  L 309.5834 268.7349
  Z
  M 355.6206 210.4232
  A 1.04 1.04 0.0 0 0 355.6180 208.9524
  L 309.4342 162.9296
  A 1.04 1.04 0.0 0 0 307.9635 162.9322
  L 262.0394 209.0168
  A 1.04 1.04 0.0 0 0 262.0420 210.4876
  L 308.2258 256.5104
  A 1.04 1.04 0.0 0 0 309.6965 256.5078
  L 355.6206 210.4232
  Z"
/>
<path fill="#00adb5" d="
  M 309.1646 245.1526
  A 0.45 0.45 0.0 0 1 308.5282 245.1526
  L 273.4274 210.0518
  A 0.45 0.45 0.0 0 1 273.4274 209.4154
  L 308.6554 174.1874
  A 0.45 0.45 0.0 0 1 309.2918 174.1874
  L 344.3926 209.2882
  A 0.45 0.45 0.0 0 1 344.3926 209.9246
  L 309.1646 245.1526
  Z
  M 309.5014 186.6118
  A 0.93 0.93 0.0 0 0 308.1862 186.6072
  L 285.7922 208.8454
  A 0.93 0.93 0.0 0 0 285.7876 210.1606
  L 308.1386 232.6682
  A 0.93 0.93 0.0 0 0 309.4538 232.6728
  L 331.8478 210.4346
  A 0.93 0.93 0.0 0 0 331.8524 209.1194
  L 309.5014 186.6118
  Z"
/>
<rect fill="#00adb5" x="-8.49" y="-8.47" transform="translate(308.86,209.72) rotate(-44.9)" width="16.98" height="16.94" rx="0.75"/>
<path fill="#00adb5" d="
  M 473.89 323.51
  A 0.94 0.94 0.0 0 0 472.95 324.49
  Q 473.43 338.74 473.22 352.25
  Q 473.20 353.89 472.86 355.50
  Q 472.73 356.10 472.11 356.09
  L 466.14 356.03
  A 0.65 0.64 0.5 0 1 465.50 355.39
  L 465.50 324.39
  A 0.64 0.64 0.0 0 0 464.89 323.75
  L 458.46 323.41
  A 0.70 0.70 0.0 0 1 457.79 322.72
  L 457.73 318.64
  Q 457.72 318.00 458.36 318.00
  L 464.97 318.00
  A 0.49 0.49 0.0 0 0 465.46 317.52
  C 465.61 313.24 464.86 307.92 466.40 304.26
  Q 470.03 295.62 480.91 297.16
  A 0.74 0.74 0.0 0 1 481.54 297.95
  L 481.27 301.88
  Q 481.22 302.52 480.61 302.70
  C 478.67 303.29 475.30 303.84 474.20 305.62
  C 472.67 308.10 473.19 313.72 473.29 317.54
  Q 473.31 318.00 473.77 318.00
  L 480.74 318.00
  A 0.73 0.73 0.0 0 1 481.47 318.74
  L 481.39 322.81
  Q 481.37 323.49 480.69 323.50
  L 473.89 323.51
  Z"
/>
<ellipse fill="#00adb5" cx="0.00" cy="0.00" transform="translate(492.68,304.75) rotate(2.3)" rx="4.97" ry="4.68"/>
<path fill="#00adb5" d="
  M 60.87 341.97
  C 68.01 351.92 85.13 352.07 91.47 341.43
  Q 92.19 340.22 93.21 339.25
  A 1.03 1.03 0.0 0 1 94.31 339.06
  L 100.40 341.74
  A 0.44 0.43 27.3 0 1 100.60 342.36
  C 85.60 367.31 48.23 358.49 48.90 327.62
  C 49.53 298.92 86.30 290.96 100.41 314.73
  Q 100.66 315.15 100.27 315.44
  Q 97.22 317.66 93.47 318.22
  A 0.83 0.82 69.7 0 1 92.63 317.83
  C 91.53 316.06 90.81 314.68 89.27 313.34
  C 69.55 296.14 47.00 322.62 60.87 341.97
  Z"
/>
<path fill="#00adb5" d="
  M 336.70 308.30
  C 315.99 310.82 313.62 341.14 332.03 348.06
  C 340.18 351.12 348.74 348.90 354.19 342.03
  C 356.15 339.56 357.29 338.75 360.21 340.28
  C 364.26 342.41 360.81 347.38 358.71 349.18
  Q 345.46 360.56 329.25 354.96
  C 314.27 349.79 309.58 333.25 313.40 319.18
  C 319.36 297.22 351.87 294.45 362.52 313.83
  A 1.71 1.70 62.6 0 1 361.78 316.18
  L 357.81 318.13
  A 1.45 1.45 0.0 0 1 355.97 317.65
  Q 348.57 306.85 336.70 308.30
  Z"
/>
<path fill="#00adb5" d="
  M 223.48 323.65
  L 216.57 323.41
  A 0.59 0.58 -89.5 0 1 216.01 322.83
  L 215.99 319.03
  A 0.75 0.75 0.0 0 1 216.64 318.29
  C 219.08 317.98 222.50 318.05 224.05 315.97
  C 225.97 313.39 225.71 308.91 225.23 305.97
  A 1.05 1.05 0.0 0 1 226.27 304.75
  L 231.25 304.75
  Q 231.75 304.75 231.75 305.25
  L 231.75 316.97
  A 1.00 0.99 -89.7 0 0 232.72 317.96
  L 239.71 318.14
  Q 240.22 318.16 240.43 318.63
  Q 241.55 321.26 239.96 323.05
  Q 239.55 323.51 238.94 323.51
  Q 235.85 323.50 232.73 323.49
  A 0.92 0.92 0.0 0 0 231.81 324.40
  Q 231.59 334.84 231.91 345.33
  C 232.07 350.22 237.11 349.49 240.29 350.23
  A 0.67 0.67 0.0 0 1 240.81 350.94
  L 240.44 355.16
  A 0.84 0.83 -2.2 0 1 239.73 355.92
  C 231.27 357.20 224.76 354.15 224.56 344.73
  Q 224.35 334.55 224.15 324.33
  Q 224.14 323.67 223.48 323.65
  Z"
/>
<path fill="#00adb5" d="
  M 141.52 339.39
  C 142.51 351.60 155.75 354.33 162.98 344.56
  Q 163.29 344.14 163.81 344.04
  Q 166.92 343.44 169.32 345.59
  A 0.75 0.74 -58.0 0 1 169.51 346.43
  C 163.53 360.51 141.59 359.61 135.55 345.94
  Q 133.33 340.90 133.93 334.72
  C 136.38 309.45 173.78 311.70 170.43 337.24
  A 1.40 1.40 0.0 0 1 169.07 338.45
  Q 157.11 338.66 145.75 338.23
  Q 143.83 338.16 142.02 338.67
  Q 141.47 338.82 141.52 339.39
  Z
  M 143.02 332.82
  L 162.08 332.76
  A 0.73 0.73 0.0 0 0 162.80 332.02
  L 162.80 331.84
  A 9.53 8.89 -0.2 0 0 153.24 322.99
  L 151.78 322.99
  A 9.53 8.89 -0.2 0 0 142.28 331.92
  L 142.28 332.10
  A 0.73 0.73 0.0 0 0 143.02 332.82
  Z"
/>
<path fill="#00adb5" d="
  M 210.48 350.31
  L 213.03 350.85
  A 0.78 0.78 0.0 0 1 213.65 351.60
  L 213.70 354.67
  Q 213.71 355.18 213.28 355.45
  C 209.51 357.86 204.42 354.92 202.15 351.78
  Q 201.83 351.34 201.43 351.71
  C 196.15 356.74 186.49 359.25 180.79 353.59
  C 178.28 351.10 177.20 347.41 178.21 343.91
  C 180.82 334.93 190.82 334.26 198.69 332.92
  C 201.75 332.40 202.37 330.03 201.18 327.45
  C 198.16 320.94 187.71 321.33 185.38 328.37
  Q 185.20 328.91 184.66 329.06
  Q 181.45 329.94 179.06 327.73
  A 1.01 1.00 25.9 0 1 178.74 326.82
  C 179.63 321.12 187.03 317.44 191.95 316.96
  C 213.27 314.90 208.92 336.74 209.83 349.56
  Q 209.88 350.18 210.48 350.31
  Z
  M 186.04 343.07
  C 180.58 352.15 201.87 355.36 202.04 338.70
  Q 202.04 338.18 201.52 338.21
  C 197.96 338.40 188.00 339.82 186.04 343.07
  Z"
/>
<path fill="#00adb5" d="
  M 282.94 346.08
  C 270.38 366.43 240.96 354.98 247.60 330.81
  C 253.53 309.23 287.46 314.15 283.25 337.40
  Q 283.07 338.41 282.04 338.43
  Q 270.06 338.67 258.50 338.24
  Q 256.47 338.17 254.53 338.67
  Q 253.96 338.82 254.05 339.40
  C 255.87 351.16 269.11 354.94 275.84 344.49
  Q 276.13 344.05 276.66 344.01
  Q 279.94 343.77 282.76 345.38
  Q 283.21 345.64 282.94 346.08
  Z
  M 255.56 332.85
  L 275.34 332.71
  A 0.49 0.49 0.0 0 0 275.83 332.22
  L 275.83 332.07
  A 9.67 9.14 -0.4 0 0 266.10 323.00
  L 264.68 323.01
  A 9.67 9.14 -0.4 0 0 255.07 332.21
  L 255.07 332.36
  A 0.49 0.49 0.0 0 0 255.56 332.85
  Z"
/>
<path fill="#00adb5" d="
  M 390.2795 356.8494
  A 20.05 19.70 87.4 0 1 369.6903 337.7137
  A 20.05 19.70 87.4 0 1 388.4605 316.7906
  A 20.05 19.70 87.4 0 1 409.0497 335.9263
  A 20.05 19.70 87.4 0 1 390.2795 356.8494
  Z
  M 389.2369 350.6987
  A 13.83 12.15 90.8 0 0 401.5788 337.0396
  A 13.83 12.15 90.8 0 0 389.6231 323.0413
  A 13.83 12.15 90.8 0 0 377.2812 336.7004
  A 13.83 12.15 90.8 0 0 389.2369 350.6987
  Z"
/>
<path fill="#00adb5" d="
  M 427.02 321.25
  C 436.54 313.17 450.84 316.63 450.97 330.69
  Q 451.07 343.00 451.00 355.34
  A 0.66 0.66 0.0 0 1 450.34 356.00
  L 444.39 356.05
  Q 443.77 356.06 443.76 355.43
  Q 443.75 343.70 443.68 332.01
  C 443.62 322.72 431.95 319.44 427.83 327.46
  Q 426.76 329.56 426.49 334.23
  Q 425.88 344.89 426.06 355.58
  A 0.66 0.65 1.6 0 1 425.35 356.25
  L 418.94 355.77
  Q 418.25 355.72 418.25 355.02
  L 418.25 319.20
  A 0.83 0.82 -8.0 0 1 418.86 318.41
  Q 421.55 317.68 424.26 318.10
  A 1.26 1.26 0.0 0 1 424.82 318.34
  Q 426.25 319.42 426.30 320.93
  Q 426.33 321.83 427.02 321.25
  Z"
/>
<path fill="#00adb5" d="
  M 536.37 349.23
  C 533.65 351.08 530.81 353.19 527.86 354.09
  C 509.91 359.51 500.55 336.26 510.63 323.44
  C 517.21 315.07 528.40 315.04 535.95 322.75
  A 0.59 0.58 -67.1 0 0 536.95 322.34
  L 536.99 318.74
  Q 536.99 317.99 537.74 317.99
  L 543.12 318.01
  Q 544.24 318.01 544.25 319.13
  C 544.40 330.43 544.79 341.85 544.11 353.21
  Q 543.70 360.14 542.18 363.66
  C 536.10 377.72 514.81 377.18 507.27 364.25
  A 2.03 2.02 -28.7 0 1 508.10 361.43
  L 511.52 359.67
  Q 512.10 359.37 512.44 359.92
  C 515.91 365.62 522.43 369.82 529.10 367.35
  C 536.14 364.76 537.60 356.42 536.87 349.46
  Q 536.82 348.92 536.37 349.23
  Z
  M 525.0296 348.5181
  A 12.63 11.89 91.0 0 0 537.1382 336.0975
  A 12.63 11.89 91.0 0 0 525.4704 323.2619
  A 12.63 11.89 91.0 0 0 513.3618 335.6825
  A 12.63 11.89 91.0 0 0 525.0296 348.5181
  Z"
/>
<path fill="#00adb5" d="
  M 117.94 322.51
  C 121.16 320.08 123.54 317.85 127.93 317.50
  Q 128.51 317.45 128.85 317.93
  Q 130.63 320.47 129.04 323.36
  A 1.35 1.32 6.3 0 1 128.22 324.00
  C 123.63 325.20 118.63 326.61 118.02 331.75
  Q 116.68 342.99 117.64 354.55
  A 1.59 1.59 0.0 0 1 115.95 356.27
  L 110.86 355.92
  Q 110.40 355.89 110.42 355.43
  Q 111.10 336.94 110.26 318.45
  Q 110.24 317.93 110.76 317.94
  L 116.40 318.03
  A 0.56 0.55 89.5 0 1 116.95 318.58
  L 117.02 322.06
  A 0.58 0.57 70.9 0 0 117.94 322.51
  Z"
/>
<rect fill="#00adb5" x="-3.69" y="-19.05" transform="translate(493.06,337.08) rotate(0.1)" width="7.38" height="38.10" rx="0.98"/>
</svg>
